<svg version="1.1" id="Layer_1" xmlns="http://www.w3.org/2000/svg" xmlns:xlink="http://www.w3.org/1999/xlink" x="0px" y="0px"
	 width="100%" viewBox="0 0 588 580" enable-background="new 0 0 588 580" xml:space="preserve">
<path fill="#FEFEFE" opacity="1.000000" stroke="none" 
	d="
M310.000000,581.000000 
	C206.666672,581.000000 103.833336,581.000000 1.000000,581.000000 
	C1.000000,387.666656 1.000000,194.333328 1.000000,1.000000 
	C197.000000,1.000000 393.000000,1.000000 589.000000,1.000000 
	C589.000000,194.333328 589.000000,387.666656 589.000000,581.000000 
	C496.166656,581.000000 403.333344,581.000000 310.000000,581.000000 
M178.995468,466.353180 
	C178.643326,465.735077 178.291168,465.117004 177.939011,464.498901 
	C177.623734,465.319214 177.308456,466.139557 176.512436,467.170715 
	C176.084335,467.469177 175.656250,467.767639 174.590332,468.079041 
	C174.211456,468.465149 173.832581,468.851227 173.453690,469.237305 
	C173.984253,469.488739 174.514801,469.740143 175.177872,470.566315 
	C175.428238,471.074249 175.678619,471.582214 175.927094,472.525208 
	C175.927094,472.525208 175.905991,472.959747 175.382950,473.421478 
	C174.759064,474.989532 174.135193,476.557556 173.467178,478.236511 
	C172.412537,477.687805 171.712509,477.323608 170.758118,476.339813 
	C168.825394,474.243896 166.892670,472.147980 165.249359,469.373932 
	C166.707153,466.246094 164.680893,466.136505 162.448349,466.045471 
	C159.827408,465.938599 158.433777,466.861603 158.434158,469.720581 
	C158.434967,475.641693 158.195862,481.563202 158.230957,487.483521 
	C158.236542,488.425507 159.155411,489.362061 159.965561,490.846283 
	C161.000870,490.640869 162.036179,490.435425 163.519684,489.704742 
	C163.671738,486.797119 163.823792,483.889526 164.750351,480.971313 
	C166.034286,481.035889 167.318237,481.100464 168.782700,481.125977 
	C168.782700,481.125977 168.950806,481.049408 168.934082,481.517731 
	C168.934082,481.517731 169.007614,481.980896 168.988358,482.757050 
	C169.991776,483.839417 170.995193,484.921753 172.324783,486.596558 
	C174.786835,487.803009 175.610977,494.268890 180.733597,488.900635 
	C180.522263,487.917847 180.310944,486.935028 179.841461,485.941498 
	C179.841461,485.941498 179.610855,486.058014 179.753586,485.130066 
	C179.710541,480.448608 179.667480,475.767181 179.875565,470.398651 
	C179.580322,469.281738 179.285080,468.164795 178.995468,466.353180 
M401.031433,310.513245 
	C401.031433,310.513245 401.011566,310.018951 401.304352,309.591644 
	C401.598969,309.417816 401.893555,309.243988 402.631165,308.955017 
	C402.912628,308.777344 403.061951,308.522308 403.433350,307.613312 
	C406.613464,304.402954 409.793610,301.192566 413.719727,297.985291 
	C417.434235,295.516510 420.391571,292.522614 421.098572,287.158051 
	C439.456726,261.024658 448.804474,232.290024 448.197906,200.053085 
	C447.562927,166.304337 436.473358,136.453064 415.158478,110.975876 
	C356.377319,40.716137 247.600311,43.279961 191.738068,115.640747 
	C130.662216,194.754944 168.312302,311.681946 264.139923,340.100830 
	C273.781982,342.960297 283.799408,344.554077 294.009613,346.816528 
	C294.009613,351.460358 293.783112,356.273682 294.073456,361.055573 
	C294.362366,365.813385 296.399689,369.716858 301.269562,371.403625 
	C305.923126,373.015472 309.969513,372.180206 313.732971,367.932495 
	C314.499268,366.622223 315.265564,365.311951 316.576813,363.472168 
	C316.608582,361.957397 316.640320,360.442627 316.741486,358.003143 
	C316.713501,294.372070 316.685547,230.740997 316.942108,166.348373 
	C316.815491,165.564072 316.688873,164.779770 316.552673,163.297806 
	C314.517517,156.424301 309.989960,153.042557 303.944702,153.880615 
	C297.908844,154.717377 294.100006,159.311630 294.062256,166.279480 
	C293.972961,182.757172 294.009247,199.235657 294.025238,215.713791 
	C294.059692,251.164154 294.113342,286.614471 294.035370,322.105560 
	C294.035370,322.105560 294.096710,322.220490 293.233337,322.313690 
	C291.801147,322.381775 290.368988,322.449829 288.304749,322.237640 
	C287.847382,322.228882 287.390045,322.220093 286.362610,321.744720 
	C282.890106,321.125824 279.417572,320.506927 275.336151,319.494781 
	C274.862061,319.443909 274.387970,319.393005 273.533051,318.891327 
	C273.001709,318.651123 272.470337,318.410919 271.981873,318.066803 
	C271.981873,318.066803 271.873383,318.037415 271.989746,317.102539 
	C271.982056,287.962524 272.003601,258.822388 271.916748,229.682617 
	C271.908966,227.069351 271.680878,224.265625 270.727325,221.881424 
	C267.620453,214.113205 258.943237,212.367493 252.717392,217.947006 
	C249.148453,221.145432 248.480148,225.243423 248.489120,229.731674 
	C248.537140,253.709717 248.518661,277.687897 248.496597,301.666016 
	C248.494720,303.704956 248.297592,305.743744 248.159897,308.381897 
	C244.032990,306.187256 240.697113,304.413300 237.207687,302.991852 
	C237.207687,302.991852 237.331375,302.627991 237.063034,302.036987 
	C234.033783,299.781738 231.004532,297.526459 227.566025,294.738739 
	C227.194580,294.493774 226.823135,294.248810 226.478256,293.072235 
	C226.461044,261.765015 226.482651,230.457642 226.365311,199.150803 
	C226.353821,196.087143 225.487015,193.026703 224.956772,189.268539 
	C221.443497,184.009628 216.990967,182.025894 211.933060,183.466095 
	C207.053391,184.855545 203.869598,189.345505 203.853058,195.318588 
	C203.793533,216.810837 203.818451,238.303314 203.811584,259.795715 
	C203.811005,261.624237 203.811523,263.452759 203.811523,266.514923 
	C174.605087,221.890167 177.757492,153.562134 228.805161,110.561951 
	C277.197235,69.798714 350.109711,74.920181 393.702789,121.744370 
	C436.924377,168.169540 429.905426,234.572937 406.960999,265.695435 
	C406.960999,262.671387 406.960602,260.234589 406.961060,257.797791 
	C406.964996,237.138367 407.000977,216.478867 406.955475,195.819565 
	C406.939911,188.764526 403.304749,184.134872 397.326965,183.209549 
	C391.569397,182.318314 387.009888,185.511414 384.232178,192.649399 
	C380.982635,203.792419 382.080841,215.226654 382.030090,226.572006 
	C381.946625,245.227951 381.728119,263.890808 382.147308,282.537689 
	C382.308502,289.708435 381.908447,295.667938 373.872406,298.180847 
	C372.940491,298.472260 372.481018,300.043457 371.556305,300.638916 
	C369.840729,301.743561 367.943329,302.565796 366.121643,303.505615 
	C365.413086,301.668182 364.098755,299.834320 364.087830,297.992737 
	C363.948486,274.506592 364.161133,251.017059 363.838898,227.534515 
	C363.783020,223.462585 361.753296,219.389450 360.412018,215.391785 
	C360.193420,214.740295 358.810333,214.111374 357.962646,214.107620 
	C355.344269,214.095978 352.724579,214.391678 349.416382,214.838409 
	C348.927063,214.842651 348.437714,214.846909 347.380676,214.321762 
	C340.780182,213.651688 336.063232,218.028671 337.100891,223.992081 
	C337.231415,224.742126 338.222717,225.342377 338.951691,226.677826 
	C338.902283,227.125549 338.852875,227.573257 338.265686,228.551437 
	C337.847626,230.131073 337.067902,231.709976 337.064697,233.290451 
	C336.993469,268.247284 336.986572,303.204346 337.092499,338.160980 
	C337.096375,339.435242 338.368073,340.705597 339.795410,342.053345 
	C340.542023,342.068726 341.288605,342.084106 342.542755,342.634003 
	C343.509155,342.666229 344.575867,342.981689 345.424469,342.681213 
	C348.916229,341.444946 352.318451,339.957947 355.797516,338.683075 
	C360.131073,337.095062 364.578430,335.798340 368.847961,334.059753 
	C373.976990,331.971161 378.970581,329.549774 384.872406,326.889526 
	C384.903015,326.687042 385.142303,325.104004 385.420074,323.266632 
	C387.101410,323.168030 388.551636,323.082947 390.085724,323.696472 
	C391.224487,324.578888 392.363220,325.461334 393.501984,326.343750 
	C393.756134,325.923767 394.010284,325.503754 394.264435,325.083771 
	C392.842255,324.389801 391.420105,323.695831 390.061462,322.304688 
	C390.403625,320.962769 390.745789,319.620850 391.395325,317.749084 
	C391.738312,317.535919 392.081299,317.322754 392.753876,317.042450 
	C392.968842,316.919037 393.079926,316.733398 393.471619,316.016083 
	C393.999512,315.740784 394.527435,315.465515 395.430328,315.813080 
	C400.554321,318.078766 400.944031,317.742676 401.031433,310.513245 
M497.254242,471.671509 
	C497.254242,471.671509 497.293091,471.662018 497.200195,472.446411 
	C498.981995,472.585114 500.763824,472.723816 502.545624,472.862518 
	C502.592987,471.156952 503.285675,469.092712 502.572601,467.809784 
	C499.909851,463.018921 495.889709,462.796875 491.385468,467.113647 
	C490.945801,467.145935 490.506104,467.178223 489.622589,466.596039 
	C480.020233,464.044617 485.142853,473.890625 482.252045,475.243958 
	C484.009521,478.827484 485.501526,481.869720 486.380005,484.932831 
	C485.973999,484.984100 485.567963,485.035370 484.406586,485.037994 
	C483.473816,486.060486 482.541046,487.082947 481.608307,488.105438 
	C482.769867,488.330444 483.931396,488.555450 485.641998,488.941498 
	C486.120789,489.235504 486.599609,489.529510 487.173706,490.644135 
	C491.519958,490.816742 496.198975,492.079285 500.126434,490.880157 
	C504.810608,489.450043 505.050781,486.315491 502.059418,481.481567 
	C501.646637,480.776764 501.233856,480.071930 500.923126,478.640289 
	C500.688080,474.669800 498.009796,477.860474 496.297455,477.230164 
	C496.297455,477.230164 495.990295,477.048248 495.892578,476.334869 
	C495.266998,474.586090 494.641449,472.837341 494.686371,470.951569 
	C495.130066,471.042603 495.573761,471.133667 496.313385,471.613464 
	C496.313385,471.613464 496.766479,471.802551 496.766479,471.802551 
	C496.766479,471.802551 497.249054,471.711151 497.254242,471.671509 
M360.988129,189.290970 
	C360.072113,182.354568 356.276703,180.395416 350.326141,184.269272 
	C349.895538,184.213684 349.464905,184.158112 348.669952,183.563461 
	C347.776001,184.005142 346.882050,184.446808 345.661316,185.133713 
	C345.661316,185.133713 345.253174,185.114532 344.404541,185.009933 
	C342.017944,185.076477 339.631317,185.143021 337.244720,185.209564 
	C337.961639,187.512222 338.678528,189.814865 339.328918,192.897385 
	C339.176636,193.928207 339.024384,194.959045 338.169556,196.150360 
	C338.431183,198.259033 338.170258,200.628769 339.065643,202.420807 
	C340.811859,205.915802 343.639618,208.206223 348.838928,206.854767 
	C350.215240,206.853882 351.591583,206.853012 353.052948,207.523819 
	C353.347198,207.887100 353.674683,208.589294 353.930878,208.564194 
	C360.808289,207.890732 365.638519,201.127792 364.219208,194.257233 
	C363.814362,192.297470 364.447479,189.531219 360.989044,190.008041 
	C360.989044,190.008041 360.924957,190.094482 360.988129,189.290970 
M305.104401,467.983276 
	C305.185944,468.469910 305.152222,469.015533 305.366394,469.434357 
	C308.552826,475.665863 314.265045,480.856689 313.259338,488.845428 
	C313.203064,489.292297 314.851440,490.513885 315.189789,490.344269 
	C316.164581,489.855682 317.298340,488.976898 317.615051,488.005371 
	C318.974121,483.836212 319.807892,479.483215 321.345001,475.389404 
	C322.259430,472.953918 324.124878,470.875519 325.971436,468.000244 
	C319.315033,467.650238 319.616089,474.239655 314.607452,476.057190 
	C314.257812,475.511139 313.555542,474.414368 312.947845,472.482758 
	C312.602722,470.942322 312.584167,469.219391 311.846008,467.898621 
	C310.192078,464.939270 306.772827,464.736481 305.104401,467.983276 
M128.390305,427.496582 
	C128.390305,432.613434 128.390305,437.730286 128.390305,443.091736 
	C131.976532,443.091736 135.056366,443.091736 138.658417,443.091736 
	C138.658417,439.151001 138.658417,435.401062 138.658417,431.947083 
	C145.536896,429.475769 149.229111,432.448761 152.433975,437.736877 
	C156.392136,444.267975 158.438217,444.691132 166.486694,442.497772 
	C163.530975,438.211395 160.621017,433.991425 157.529892,429.508667 
	C164.990616,425.289886 167.583771,419.035919 165.674881,411.212372 
	C164.013794,404.404388 158.859512,400.754303 152.305664,400.205658 
	C144.588120,399.559601 136.775085,400.054169 128.390350,400.054169 
	C128.390350,408.940399 128.390350,417.719025 128.390305,427.496582 
M434.593323,400.854218 
	C432.676025,400.320251 430.788940,399.603638 428.836700,399.281067 
	C412.617249,396.601044 398.920044,409.380341 401.385529,424.831055 
	C403.123779,435.724487 411.832581,443.457184 423.044861,444.062744 
	C434.588196,444.686188 444.361572,438.324097 447.403625,428.206116 
	C450.708344,417.214539 446.232666,407.206238 434.593323,400.854218 
M203.461853,399.749268 
	C196.402802,398.166687 192.137894,400.906097 190.615143,407.989197 
	C190.445084,408.780182 189.927032,409.493652 189.590820,410.252136 
	C184.789978,421.081940 179.992645,431.913300 174.932083,443.336609 
	C177.824432,443.336609 179.990051,443.575745 182.068405,443.253021 
	C183.467300,443.035767 185.740173,442.223053 185.916641,441.337067 
	C187.391251,433.934082 192.433273,433.275055 198.523300,434.017670 
	C200.488022,434.257263 202.537094,434.278229 204.493912,434.009094 
	C208.296021,433.486145 210.499985,434.933929 211.202423,438.698273 
	C211.958771,442.751495 214.509811,443.985260 218.364700,443.372955 
	C219.925583,443.125031 221.533081,443.170563 223.786514,443.045502 
	C217.083450,428.342957 210.635239,414.199341 203.461853,399.749268 
M305.573761,416.779999 
	C303.538971,412.236908 301.205261,407.798462 299.565735,403.116943 
	C298.297607,399.495911 295.822266,399.646088 292.925323,399.637085 
	C290.016510,399.628052 287.737671,399.636169 286.277557,403.110107 
	C281.006378,415.651611 275.323334,428.019867 269.826294,440.467010 
	C269.470367,441.272919 269.371521,442.192352 269.083527,443.334808 
	C271.508667,443.334808 273.516174,443.159210 275.479645,443.378204 
	C278.072144,443.667389 279.632019,442.730469 280.167145,440.198700 
	C281.303558,434.822479 284.608978,433.151001 289.872131,433.975037 
	C292.628510,434.406616 295.534729,434.271210 298.328827,433.973877 
	C301.914124,433.592285 303.755188,434.993896 304.849976,438.381042 
	C305.438721,440.202606 306.769440,442.679077 308.271271,443.114258 
	C310.938293,443.887085 313.990356,443.331238 317.386200,443.331238 
	C313.300201,434.135254 309.596954,425.800629 305.573761,416.779999 
M358.685638,399.695190 
	C356.557739,399.695190 354.429871,399.695190 351.804230,399.695190 
	C351.804230,407.200317 351.804230,414.319397 351.804230,421.438446 
	C351.804230,428.694794 351.804230,435.951141 351.804230,442.929321 
	C355.579193,442.929321 358.641541,442.929321 362.039001,442.929321 
	C362.039001,438.911835 362.039001,435.287201 362.039001,431.167633 
	C366.192291,431.167633 370.015503,431.418213 373.795044,431.118225 
	C383.212250,430.370850 389.343292,424.431000 389.559052,416.177124 
	C389.794556,407.168213 384.014679,400.908997 374.109558,399.970764 
	C369.320007,399.517120 364.463989,399.765015 358.685638,399.695190 
M102.793060,430.424805 
	C111.527168,427.322083 115.331680,421.824646 114.414291,413.632324 
	C113.563141,406.031525 108.260803,400.747162 99.555443,400.085968 
	C92.151512,399.523621 84.670982,399.969849 77.078751,399.969849 
	C77.078751,414.459137 77.078751,428.702393 77.078751,443.052612 
	C80.444214,443.052612 83.539032,443.052612 87.116760,443.052612 
	C87.116760,439.022736 87.116760,435.276062 87.116760,431.659882 
	C92.411552,431.303223 97.214653,430.979675 102.793060,430.424805 
M247.943741,410.771729 
	C247.936432,416.763611 248.066849,422.759674 247.884430,428.746216 
	C247.688278,435.184021 242.631012,437.692596 237.164139,434.177765 
	C235.918076,433.376678 234.835556,432.321167 233.457123,431.203888 
	C231.688293,433.406097 229.976776,435.536957 228.210602,437.735840 
	C233.877960,444.028442 240.467957,445.043671 247.720215,443.376434 
	C253.115341,442.136169 257.014404,438.692047 257.248718,433.186188 
	C257.718140,422.154968 257.388123,411.089752 257.388123,399.931641 
	C249.257874,399.931641 241.182281,399.931641 232.945908,399.931641 
	C232.945908,402.619110 232.945908,405.040192 232.945908,407.887543 
	C236.855652,407.887543 240.495209,407.720215 244.104797,407.975861 
	C245.416473,408.068726 246.656647,409.170990 247.943741,410.771729 
M476.354431,434.985229 
	C473.099945,435.504974 472.516693,433.786682 472.550079,430.950378 
	C472.670746,420.696533 472.597534,410.440430 472.597534,399.916626 
	C469.060211,399.916626 465.996490,399.916626 462.758301,399.916626 
	C462.758301,414.462036 462.758301,428.772888 462.758301,443.152863 
	C473.395020,443.152863 483.631836,443.152863 494.061188,443.152863 
	C494.061188,440.400299 494.061188,437.855316 494.061188,434.989197 
	C488.288391,434.989197 482.836792,434.989197 476.354431,434.985229 
M505.857941,427.497345 
	C505.857941,432.637848 505.857941,437.778320 505.857941,443.036072 
	C516.668640,443.036072 527.084473,443.036072 537.524048,443.036072 
	C537.524048,440.310364 537.524048,437.899689 537.524048,435.017029 
	C530.295044,435.017029 523.380737,435.017029 516.055542,435.017029 
	C516.055542,423.111053 516.055542,411.677032 516.055542,399.965576 
	C512.533997,399.965576 509.437378,399.965576 505.857941,399.965576 
	C505.857941,408.917145 505.857941,417.707672 505.857941,427.497345 
M270.177246,201.480576 
	C270.553192,200.558167 271.032043,199.663406 271.288544,198.708893 
	C273.046448,192.166992 269.328979,185.933212 262.915558,184.597092 
	C256.349274,183.229156 249.636780,187.753082 248.856201,194.072525 
	C248.030258,200.759369 252.987915,207.036194 259.843170,206.611755 
	C263.228668,206.402145 266.459198,203.689514 270.177246,201.480576 
M404.182892,171.593353 
	C408.205872,165.344299 407.834656,159.785110 403.112793,155.567352 
	C399.116486,151.997696 393.161499,151.781143 388.957336,155.052551 
	C384.337738,158.647232 383.218536,166.036789 386.591156,170.675201 
	C390.481689,176.025955 397.469147,176.627396 404.182892,171.593353 
M203.843292,164.459198 
	C204.825668,170.868469 207.974533,174.428802 213.228348,175.070557 
	C218.704086,175.739426 223.324371,173.349243 225.098053,168.890701 
	C226.826859,164.544952 226.638016,160.292557 223.551270,156.686401 
	C220.483719,153.102692 216.372543,151.847977 211.795074,153.263733 
	C206.790314,154.811661 204.249420,158.449615 203.843292,164.459198 
M107.952347,490.380951 
	C109.092873,489.695007 110.598480,489.270813 111.310646,488.277679 
	C114.372055,484.008270 122.425507,484.024628 125.377106,488.255585 
	C126.184006,489.412170 127.956001,489.895508 129.285110,490.687805 
	C129.663605,490.226807 130.042099,489.765808 130.420593,489.304810 
	C127.520180,482.844482 124.695221,476.348206 121.648903,469.957428 
	C121.108650,468.824066 119.555679,467.322754 118.632896,467.427185 
	C117.338974,467.573669 115.677078,468.809906 115.079109,470.025787 
	C112.224838,475.829407 109.637024,481.766479 107.073959,487.707642 
	C106.773346,488.404480 107.209351,489.419037 107.952347,490.380951 
M212.180649,490.329681 
	C212.619675,490.107056 213.227890,490.000641 213.472504,489.644501 
	C217.597260,483.638885 223.962418,483.471924 228.670975,489.072784 
	C229.442963,489.991119 231.223160,490.061829 232.537384,490.524292 
	C230.245178,482.559082 227.279404,475.559418 223.949860,468.737274 
	C222.696930,466.170105 219.573914,466.588440 218.203110,469.426300 
	C215.307220,475.421356 212.534988,481.480072 209.929443,487.605164 
	C209.673264,488.207397 210.924194,489.450745 212.180649,490.329681 
M445.882568,490.594482 
	C448.563660,490.007507 451.315918,489.618744 453.877319,488.698608 
	C454.543365,488.459320 454.613403,486.560913 454.957214,485.424530 
	C453.852203,485.470459 452.601196,485.196228 451.669128,485.621338 
	C448.654724,486.996155 445.838409,487.792328 443.014771,485.208252 
	C439.615540,482.097534 438.503632,478.417633 441.188904,474.572510 
	C443.804810,470.826782 447.530914,470.204926 451.782013,472.257355 
	C452.756927,472.728027 454.265472,472.093414 455.528412,471.967407 
	C454.941254,470.802185 454.628082,469.280823 453.696106,468.563904 
	C452.586304,467.710175 450.976227,467.316620 449.529510,467.123169 
	C442.364990,466.165100 436.688202,470.025513 435.347565,476.626434 
	C434.050751,483.011536 437.789154,488.340698 445.882568,490.594482 
M367.912170,471.291351 
	C369.110535,470.549500 370.308868,469.807648 371.507233,469.065796 
	C370.385315,468.440887 369.288544,467.337524 368.136993,467.277100 
	C364.002655,467.060150 359.838959,467.029633 355.710541,467.299011 
	C354.464661,467.380280 353.297180,468.663757 352.093811,469.396576 
	C353.213440,470.030518 354.353302,471.230286 355.448822,471.191071 
	C358.577271,471.079132 359.574799,472.432281 359.431488,475.335449 
	C359.300842,477.982086 359.137756,480.677979 359.494080,483.283051 
	C359.828064,485.724854 357.595398,490.142914 361.585236,490.166382 
	C366.259949,490.193848 363.392120,485.548370 363.870758,483.063049 
	C364.394257,480.344574 363.684723,477.398071 364.129669,474.650848 
	C364.330597,473.410187 366.025208,472.411469 367.912170,471.291351 
M262.144226,485.275726 
	C262.221832,486.869965 262.299469,488.464203 262.397156,490.471069 
	C267.153351,490.471069 271.450378,490.593445 275.730591,490.379486 
	C276.722168,490.329926 277.656372,489.132080 278.617004,488.462616 
	C277.559021,487.766113 276.552917,486.589569 275.432739,486.468506 
	C272.717743,486.175079 269.949585,486.373169 266.857483,486.373169 
	C266.857483,481.373840 267.085052,477.221497 266.761475,473.112518 
	C266.599701,471.058685 268.617676,467.425018 264.397644,467.500824 
	C263.612366,467.514954 262.451111,471.262024 262.244781,473.363007 
	C261.888855,476.987305 262.146057,480.671814 262.144226,485.275726 
M294.868103,138.343872 
	C299.417786,147.073608 309.851593,148.194839 314.848938,140.491058 
	C317.700989,136.094345 317.341248,130.626465 313.938934,126.660164 
	C310.445801,122.587997 305.099121,121.443443 300.463287,123.775406 
	C295.290771,126.377319 293.399811,130.832825 294.868103,138.343872 
M405.075409,478.496796 
	C405.061920,475.513611 405.187866,472.518890 404.941681,469.555023 
	C404.876221,468.766876 403.669098,468.073578 402.986176,467.336731 
	C402.302185,468.053436 401.040222,468.757477 401.024109,469.488861 
	C400.872803,476.374237 400.934235,483.264313 400.934235,490.153015 
	C401.527100,490.385223 402.119995,490.617432 402.712860,490.849640 
	C403.496521,489.708893 404.792999,488.637207 404.957855,487.413147 
	C405.308655,484.807953 405.071564,482.123596 405.075409,478.496796 
M337.415863,214.484360 
	C337.415863,214.484360 337.523651,214.420471 337.415863,214.484360 
z"/>
<path fill="#D93237" opacity="1.000000" stroke="none" 
	d="
M313.085022,368.123383 
	C309.969513,372.180206 305.923126,373.015472 301.269562,371.403625 
	C296.399689,369.716858 294.362366,365.813385 294.073456,361.055573 
	C293.783112,356.273682 294.009613,351.460358 294.009613,346.816528 
	C283.799408,344.554077 273.781982,342.960297 264.139923,340.100830 
	C168.312302,311.681946 130.662216,194.754944 191.738068,115.640747 
	C247.600311,43.279961 356.377319,40.716137 415.158478,110.975876 
	C436.473358,136.453064 447.562927,166.304337 448.197906,200.053085 
	C448.804474,232.290024 439.456726,261.024658 420.663513,287.635315 
	C417.810211,291.402435 415.391968,294.692322 412.973724,297.982208 
	C409.793610,301.192566 406.613464,304.402954 403.016479,307.931335 
	C402.283386,308.433197 402.146240,308.706787 402.188141,309.070129 
	C401.893555,309.243988 401.598969,309.417816 400.896820,309.847473 
	C400.277954,310.370667 400.066589,310.638000 399.558533,311.037292 
	C397.859680,312.509583 396.457489,313.849884 395.055328,315.190216 
	C394.527435,315.465515 393.999512,315.740784 393.088104,316.243896 
	C392.420898,316.600647 392.327484,316.813263 392.424286,317.109589 
	C392.081299,317.322754 391.738312,317.535919 390.911407,318.068237 
	C385.846130,321.360199 381.532593,324.908691 376.629456,327.190063 
	C365.249390,332.485077 353.584595,337.168274 342.035217,342.099487 
	C341.288605,342.084106 340.542023,342.068726 339.416901,341.548492 
	C339.030304,321.290131 339.046661,301.536591 339.006927,281.783142 
	C338.970886,263.862366 338.873718,245.941696 338.803467,228.020981 
	C338.852875,227.573257 338.902283,227.125549 339.030701,226.014572 
	C340.025696,220.142258 343.377838,216.983887 347.948395,214.851166 
	C348.437714,214.846909 348.927063,214.842651 350.099335,214.865143 
	C359.150269,217.192307 361.978027,220.810944 361.988068,229.524979 
	C362.016083,253.810699 361.994934,278.096466 361.993256,302.382233 
	C361.993134,304.405914 361.993256,306.429626 361.993256,308.453308 
	C362.479462,308.667816 362.965668,308.882324 363.451874,309.096802 
	C369.490753,304.757721 375.702942,300.631805 381.462677,295.949310 
	C383.184387,294.549561 384.529144,291.599121 384.543396,289.349640 
	C384.748505,256.916626 384.696808,224.481949 384.706726,192.047684 
	C387.009888,185.511414 391.569397,182.318314 397.326965,183.209549 
	C403.304749,184.134872 406.939911,188.764526 406.955475,195.819565 
	C407.000977,216.478867 406.964996,237.138367 406.961060,257.797791 
	C406.960602,260.234589 406.960999,262.671387 406.960999,265.695435 
	C429.905426,234.572937 436.924377,168.169540 393.702789,121.744370 
	C350.109711,74.920181 277.197235,69.798714 228.805161,110.561951 
	C177.757492,153.562134 174.605087,221.890167 203.811523,266.514923 
	C203.811523,263.452759 203.811005,261.624237 203.811584,259.795715 
	C203.818451,238.303314 203.793533,216.810837 203.853058,195.318588 
	C203.869598,189.345505 207.053391,184.855545 211.933060,183.466095 
	C216.990967,182.025894 221.443497,184.009628 224.953094,190.086914 
	C224.972198,223.499146 224.972595,256.093048 225.078751,288.686615 
	C225.084518,290.460510 225.973724,292.231506 226.451691,294.003845 
	C226.823135,294.248810 227.194580,294.493774 227.805618,295.331848 
	C231.140594,298.159332 234.235977,300.393646 237.331375,302.627991 
	C237.331375,302.627991 237.207687,302.991852 237.201492,303.191589 
	C238.877930,304.770050 240.429260,306.371582 242.281174,307.463135 
	C244.032013,308.495117 246.098602,308.991333 248.026276,309.723206 
	C248.676788,307.580048 249.459015,305.465210 249.927460,303.282959 
	C250.200317,302.011841 249.967621,300.632782 249.967361,299.302307 
	C249.962738,275.685974 249.985458,252.069595 249.932129,228.453384 
	C249.921646,223.810150 251.888367,220.549530 256.030212,218.569092 
	C257.448944,217.890732 258.916107,217.313614 260.398438,216.674149 
	C265.615417,218.684555 270.886108,221.124573 270.599304,228.322632 
	C270.514587,230.448395 270.075775,232.566208 270.072113,234.688126 
	C270.026459,261.131653 270.004120,287.575409 270.101685,314.018616 
	C270.106628,315.360382 271.256561,316.697906 271.873383,318.037415 
	C271.873383,318.037415 271.981873,318.066803 271.978271,318.389862 
	C272.621063,318.922668 273.267487,319.132385 273.913879,319.342133 
	C274.387970,319.393005 274.862061,319.443909 275.801086,319.958130 
	C279.821564,321.018097 283.377106,321.614716 286.932678,322.211304 
	C287.390045,322.220093 287.847382,322.228882 288.711761,322.660461 
	C290.052094,323.954590 290.985413,324.825928 292.303467,326.056396 
	C293.035675,324.490173 293.566193,323.355316 294.096710,322.220490 
	C294.096710,322.220490 294.035370,322.105560 294.476868,321.966705 
	C295.262756,319.954468 295.905884,318.081390 295.907990,316.207611 
	C295.963898,266.455658 295.948273,216.703644 295.960022,166.951630 
	C295.962067,158.347778 301.369598,154.246597 308.783691,157.181488 
	C308.130371,162.348724 309.430328,163.416565 314.315857,162.207336 
	C314.726593,163.603928 314.874298,164.763596 315.014404,166.396667 
	C315.004578,229.921341 315.029602,292.972656 314.915253,356.023712 
	C314.909821,359.018524 313.669098,362.011139 312.726501,364.806366 
	C311.099670,364.452332 309.560516,363.846008 308.469086,364.304810 
	C307.780457,364.594238 307.761078,366.475922 307.441498,367.643372 
	C308.761383,367.779327 310.079285,367.944092 311.402222,368.036255 
	C311.889252,368.070190 312.388275,367.932678 312.938263,367.931305 
	C312.994720,367.989197 313.085022,368.123383 313.085022,368.123383 
M307.875854,358.000305 
	C309.460510,357.883514 311.045166,357.766693 313.000000,357.622589 
	C313.000000,355.134003 313.000000,353.162140 313.000000,351.190277 
	C313.000000,292.425476 313.000031,233.660660 312.999969,174.895859 
	C312.999969,167.246399 311.784698,165.777527 303.274261,163.458054 
	C303.349762,164.489151 303.238556,166.142670 303.510193,166.208145 
	C308.302551,167.363556 306.971985,171.151855 306.973724,174.214325 
	C307.008911,235.476212 307.000000,296.738098 306.226776,358.001892 
	C305.217804,358.513458 304.208832,359.025055 303.199860,359.536652 
	C303.591888,359.972412 303.983948,360.408203 304.375977,360.843964 
	C305.250641,359.895966 306.125336,358.947998 307.875854,358.000305 
M300.131927,367.491943 
	C301.501678,367.985504 302.871460,368.479034 304.690155,369.134369 
	C302.092773,365.466187 300.005951,362.519043 297.698303,359.260071 
	C294.774170,362.791565 297.475464,364.845612 300.131927,367.491943 
z"/>
<path fill="#2B1011" opacity="1.000000" stroke="none" 
	d="
M128.390320,426.997131 
	C128.390350,417.719025 128.390350,408.940399 128.390350,400.054169 
	C136.775085,400.054169 144.588120,399.559601 152.305664,400.205658 
	C158.859512,400.754303 164.013794,404.404388 165.674881,411.212372 
	C167.583771,419.035919 164.990616,425.289886 157.529892,429.508667 
	C160.621017,433.991425 163.530975,438.211395 166.486694,442.497772 
	C158.438217,444.691132 156.392136,444.267975 152.433975,437.736877 
	C149.229111,432.448761 145.536896,429.475769 138.658417,431.947083 
	C138.658417,435.401062 138.658417,439.151001 138.658417,443.091736 
	C135.056366,443.091736 131.976532,443.091736 128.390305,443.091736 
	C128.390305,437.730286 128.390305,432.613434 128.390320,426.997131 
M155.677521,413.151184 
	C151.932159,405.343964 144.990295,408.818817 138.858109,407.842743 
	C138.858109,413.172546 138.858109,417.881042 138.858109,422.776489 
	C139.732605,422.906036 140.355576,423.073151 140.979660,423.077484 
	C143.301346,423.093658 145.633759,423.190521 147.943298,423.012604 
	C153.788712,422.562195 155.843842,420.136383 155.677521,413.151184 
z"/>
<path fill="#2A0F0F" opacity="1.000000" stroke="none" 
	d="
M434.946594,400.997162 
	C446.232666,407.206238 450.708344,417.214539 447.403625,428.206116 
	C444.361572,438.324097 434.588196,444.686188 423.044861,444.062744 
	C411.832581,443.457184 403.123779,435.724487 401.385529,424.831055 
	C398.920044,409.380341 412.617249,396.601044 428.836700,399.281067 
	C430.788940,399.603638 432.676025,400.320251 434.946594,400.997162 
M413.361755,414.090363 
	C409.087311,424.114410 413.239532,433.787262 422.433746,435.224182 
	C429.115234,436.268433 435.123535,432.686615 437.356598,426.328064 
	C439.630798,419.852325 437.133820,412.765503 431.403015,409.430969 
	C425.314392,405.888275 419.147369,407.312134 413.361755,414.090363 
z"/>
<path fill="#280D0E" opacity="1.000000" stroke="none" 
	d="
M203.824432,399.902496 
	C210.635239,414.199341 217.083450,428.342957 223.786514,443.045502 
	C221.533081,443.170563 219.925583,443.125031 218.364700,443.372955 
	C214.509811,443.985260 211.958771,442.751495 211.202423,438.698273 
	C210.499985,434.933929 208.296021,433.486145 204.493912,434.009094 
	C202.537094,434.278229 200.488022,434.257263 198.523300,434.017670 
	C192.433273,433.275055 187.391251,433.934082 185.916641,441.337067 
	C185.740173,442.223053 183.467300,443.035767 182.068405,443.253021 
	C179.990051,443.575745 177.824432,443.336609 174.932083,443.336609 
	C179.992645,431.913300 184.789978,421.081940 189.590820,410.252136 
	C189.927032,409.493652 190.445084,408.780182 190.615143,407.989197 
	C192.137894,400.906097 196.402802,398.166687 203.824432,399.902496 
M203.262848,419.396759 
	C202.053421,416.508759 200.843994,413.620758 199.186096,409.661865 
	C196.692963,415.803192 194.684280,420.751190 192.549210,426.010498 
	C197.239502,426.010498 201.262497,426.010498 205.900101,426.010498 
	C205.015656,423.742920 204.312103,421.939117 203.262848,419.396759 
z"/>
<path fill="#290D0E" opacity="1.000000" stroke="none" 
	d="
M305.733704,417.123016 
	C309.596954,425.800629 313.300201,434.135254 317.386200,443.331238 
	C313.990356,443.331238 310.938293,443.887085 308.271271,443.114258 
	C306.769440,442.679077 305.438721,440.202606 304.849976,438.381042 
	C303.755188,434.993896 301.914124,433.592285 298.328827,433.973877 
	C295.534729,434.271210 292.628510,434.406616 289.872131,433.975037 
	C284.608978,433.151001 281.303558,434.822479 280.167145,440.198700 
	C279.632019,442.730469 278.072144,443.667389 275.479645,443.378204 
	C273.516174,443.159210 271.508667,443.334808 269.083527,443.334808 
	C269.371521,442.192352 269.470367,441.272919 269.826294,440.467010 
	C275.323334,428.019867 281.006378,415.651611 286.277557,403.110107 
	C287.737671,399.636169 290.016510,399.628052 292.925323,399.637085 
	C295.822266,399.646088 298.297607,399.495911 299.565735,403.116943 
	C301.205261,407.798462 303.538971,412.236908 305.733704,417.123016 
M294.910248,414.561951 
	C294.297333,413.286621 293.684418,412.011292 292.706024,409.975433 
	C290.332581,415.739929 288.288635,420.704254 286.073059,426.085297 
	C291.064880,426.085297 294.972534,426.085297 299.563141,426.085297 
	C297.984802,422.211761 296.576172,418.754700 294.910248,414.561951 
z"/>
<path fill="#260A0B" opacity="1.000000" stroke="none" 
	d="
M359.161865,399.695251 
	C364.463989,399.765015 369.320007,399.517120 374.109558,399.970764 
	C384.014679,400.908997 389.794556,407.168213 389.559052,416.177124 
	C389.343292,424.431000 383.212250,430.370850 373.795044,431.118225 
	C370.015503,431.418213 366.192291,431.167633 362.039001,431.167633 
	C362.039001,435.287201 362.039001,438.911835 362.039001,442.929321 
	C358.641541,442.929321 355.579193,442.929321 351.804230,442.929321 
	C351.804230,435.951141 351.804230,428.694794 351.804230,421.438446 
	C351.804230,414.319397 351.804230,407.200317 351.804230,399.695190 
	C354.429871,399.695190 356.557739,399.695190 359.161865,399.695251 
M361.877350,416.472107 
	C361.877350,418.560760 361.877350,420.649414 361.877350,423.275085 
	C368.007477,422.288086 374.565826,425.363251 378.240143,419.016113 
	C379.359039,417.083282 379.080536,413.014557 377.724792,411.225098 
	C373.664062,405.865265 367.605225,408.485382 361.878754,407.968872 
	C361.878754,410.917633 361.878754,413.210236 361.877350,416.472107 
z"/>
<path fill="#270A0B" opacity="1.000000" stroke="none" 
	d="
M102.405411,430.540466 
	C97.214653,430.979675 92.411552,431.303223 87.116760,431.659882 
	C87.116760,435.276062 87.116760,439.022736 87.116760,443.052612 
	C83.539032,443.052612 80.444214,443.052612 77.078751,443.052612 
	C77.078751,428.702393 77.078751,414.459137 77.078751,399.969849 
	C84.670982,399.969849 92.151512,399.523621 99.555443,400.085968 
	C108.260803,400.747162 113.563141,406.031525 114.414291,413.632324 
	C115.331680,421.824646 111.527168,427.322083 102.405411,430.540466 
M94.264351,423.052826 
	C94.926003,423.038177 95.593185,423.073547 96.248428,423.001038 
	C101.762779,422.390717 104.280243,419.993866 104.215614,415.445007 
	C104.148933,410.750732 101.264236,408.197052 95.607040,407.976715 
	C92.853340,407.869415 90.092003,407.958130 87.197296,407.958130 
	C87.197296,413.231171 87.197296,417.926025 87.197296,423.066315 
	C89.457512,423.066315 91.401939,423.066315 94.264351,423.052826 
z"/>
<path fill="#270C0D" opacity="1.000000" stroke="none" 
	d="
M247.936584,410.292236 
	C246.656647,409.170990 245.416473,408.068726 244.104797,407.975861 
	C240.495209,407.720215 236.855652,407.887543 232.945908,407.887543 
	C232.945908,405.040192 232.945908,402.619110 232.945908,399.931641 
	C241.182281,399.931641 249.257874,399.931641 257.388123,399.931641 
	C257.388123,411.089752 257.718140,422.154968 257.248718,433.186188 
	C257.014404,438.692047 253.115341,442.136169 247.720215,443.376434 
	C240.467957,445.043671 233.877960,444.028442 228.210602,437.735840 
	C229.976776,435.536957 231.688293,433.406097 233.457123,431.203888 
	C234.835556,432.321167 235.918076,433.376678 237.164139,434.177765 
	C242.631012,437.692596 247.688278,435.184021 247.884430,428.746216 
	C248.066849,422.759674 247.936432,416.763611 247.936584,410.292236 
z"/>
<path fill="#2F1415" opacity="1.000000" stroke="none" 
	d="
M476.869812,434.987213 
	C482.836792,434.989197 488.288391,434.989197 494.061188,434.989197 
	C494.061188,437.855316 494.061188,440.400299 494.061188,443.152863 
	C483.631836,443.152863 473.395020,443.152863 462.758301,443.152863 
	C462.758301,428.772888 462.758301,414.462036 462.758301,399.916626 
	C465.996490,399.916626 469.060211,399.916626 472.597534,399.916626 
	C472.597534,410.440430 472.670746,420.696533 472.550079,430.950378 
	C472.516693,433.786682 473.099945,435.504974 476.869812,434.987213 
z"/>
<path fill="#260A0B" opacity="1.000000" stroke="none" 
	d="
M505.857941,426.997742 
	C505.857941,417.707672 505.857941,408.917145 505.857941,399.965576 
	C509.437378,399.965576 512.533997,399.965576 516.055542,399.965576 
	C516.055542,411.677032 516.055542,423.111053 516.055542,435.017029 
	C523.380737,435.017029 530.295044,435.017029 537.524048,435.017029 
	C537.524048,437.899689 537.524048,440.310364 537.524048,443.036072 
	C527.084473,443.036072 516.668640,443.036072 505.857941,443.036072 
	C505.857941,437.778320 505.857941,432.637848 505.857941,426.997742 
z"/>
<path fill="#F9EEEC" opacity="1.000000" stroke="none" 
	d="
M384.469421,192.348541 
	C384.696808,224.481949 384.748505,256.916626 384.543396,289.349640 
	C384.529144,291.599121 383.184387,294.549561 381.462677,295.949310 
	C375.702942,300.631805 369.490753,304.757721 363.451874,309.096802 
	C362.965668,308.882324 362.479462,308.667816 361.993256,308.453308 
	C361.993256,306.429626 361.993134,304.405914 361.993256,302.382233 
	C361.994934,278.096466 362.016083,253.810699 361.988068,229.524979 
	C361.978027,220.810944 359.150269,217.192307 350.443848,214.729950 
	C352.724579,214.391678 355.344269,214.095978 357.962646,214.107620 
	C358.810333,214.111374 360.193420,214.740295 360.412018,215.391785 
	C361.753296,219.389450 363.783020,223.462585 363.838898,227.534515 
	C364.161133,251.017059 363.948486,274.506592 364.087830,297.992737 
	C364.098755,299.834320 365.413086,301.668182 366.121643,303.505615 
	C367.943329,302.565796 369.840729,301.743561 371.556305,300.638916 
	C372.481018,300.043457 372.940491,298.472260 373.872406,298.180847 
	C381.908447,295.667938 382.308502,289.708435 382.147308,282.537689 
	C381.728119,263.890808 381.946625,245.227951 382.030090,226.572006 
	C382.080841,215.226654 380.982635,203.792419 384.469421,192.348541 
z"/>
<path fill="#CA4F56" opacity="1.000000" stroke="none" 
	d="
M271.931580,317.569977 
	C271.256561,316.697906 270.106628,315.360382 270.101685,314.018616 
	C270.004120,287.575409 270.026459,261.131653 270.072113,234.688126 
	C270.075775,232.566208 270.514587,230.448395 270.599304,228.322632 
	C270.886108,221.124573 265.615417,218.684555 260.398438,216.674149 
	C258.916107,217.313614 257.448944,217.890732 256.030212,218.569092 
	C251.888367,220.549530 249.921646,223.810150 249.932129,228.453384 
	C249.985458,252.069595 249.962738,275.685974 249.967361,299.302307 
	C249.967621,300.632782 250.200317,302.011841 249.927460,303.282959 
	C249.459015,305.465210 248.676788,307.580048 248.026276,309.723206 
	C246.098602,308.991333 244.032013,308.495117 242.281174,307.463135 
	C240.429260,306.371582 238.877930,304.770050 237.278259,303.015320 
	C240.697113,304.413300 244.032990,306.187256 248.159897,308.381897 
	C248.297592,305.743744 248.494720,303.704956 248.496597,301.666016 
	C248.518661,277.687897 248.537140,253.709717 248.489120,229.731674 
	C248.480148,225.243423 249.148453,221.145432 252.717392,217.947006 
	C258.943237,212.367493 267.620453,214.113205 270.727325,221.881424 
	C271.680878,224.265625 271.908966,227.069351 271.916748,229.682617 
	C272.003601,258.822388 271.982056,287.962524 271.931580,317.569977 
z"/>
<path fill="#D6393D" opacity="1.000000" stroke="none" 
	d="
M269.968536,201.794998 
	C266.459198,203.689514 263.228668,206.402145 259.843170,206.611755 
	C252.987915,207.036194 248.030258,200.759369 248.856201,194.072525 
	C249.636780,187.753082 256.349274,183.229156 262.915558,184.597092 
	C269.328979,185.933212 273.046448,192.166992 271.288544,198.708893 
	C271.032043,199.663406 270.553192,200.558167 269.968536,201.794998 
z"/>
<path fill="#D6393D" opacity="1.000000" stroke="none" 
	d="
M403.932007,171.869781 
	C397.469147,176.627396 390.481689,176.025955 386.591156,170.675201 
	C383.218536,166.036789 384.337738,158.647232 388.957336,155.052551 
	C393.161499,151.781143 399.116486,151.997696 403.112793,155.567352 
	C407.834656,159.785110 408.205872,165.344299 403.932007,171.869781 
z"/>
<path fill="#D6373E" opacity="1.000000" stroke="none" 
	d="
M203.846649,164.044281 
	C204.249420,158.449615 206.790314,154.811661 211.795074,153.263733 
	C216.372543,151.847977 220.483719,153.102692 223.551270,156.686401 
	C226.638016,160.292557 226.826859,164.544952 225.098053,168.890701 
	C223.324371,173.349243 218.704086,175.739426 213.228348,175.070557 
	C207.974533,174.428802 204.825668,170.868469 203.846649,164.044281 
z"/>
<path fill="#D6393D" opacity="1.000000" stroke="none" 
	d="
M352.967896,206.852142 
	C351.591583,206.853012 350.215240,206.853882 348.180664,206.664642 
	C342.311707,204.899719 339.732239,201.154068 338.872131,195.989868 
	C339.024384,194.959045 339.176636,193.928207 339.573120,192.265961 
	C341.629272,189.461197 343.441223,187.287872 345.253174,185.114532 
	C345.253174,185.114532 345.661316,185.133713 346.147736,185.059784 
	C347.434204,184.691406 348.234253,184.396973 349.034302,184.102539 
	C349.464905,184.158112 349.895538,184.213684 350.935272,184.385773 
	C354.671234,186.366333 357.798096,188.230408 360.924957,190.094482 
	C360.924957,190.094482 360.989044,190.008041 360.981781,190.436508 
	C363.263550,198.888092 361.550262,202.309113 352.967896,206.852142 
z"/>
<path fill="#C52C36" opacity="1.000000" stroke="none" 
	d="
M313.003662,365.004761 
	C313.669098,362.011139 314.909821,359.018524 314.915253,356.023712 
	C315.029602,292.972656 315.004578,229.921341 315.249817,166.420593 
	C315.492767,165.971085 315.962891,166.027969 316.024841,166.242416 
	C316.169647,166.768417 316.359894,166.986099 316.657562,167.109924 
	C316.685547,230.740997 316.713501,294.372070 316.480316,358.760254 
	C316.156708,361.012146 316.094299,362.506897 316.031860,364.001648 
	C315.265564,365.311951 314.499268,366.622223 313.408997,368.027954 
	C313.085022,368.123383 312.994720,367.989197 312.973022,367.575195 
	C312.968750,366.442413 312.986206,365.723572 313.003662,365.004761 
z"/>
<path fill="#CA4F56" opacity="1.000000" stroke="none" 
	d="
M315.962891,166.027969 
	C315.962891,166.027969 315.492767,165.971085 315.257385,165.947174 
	C314.874298,164.763596 314.726593,163.603928 314.271790,161.869629 
	C312.331116,159.847000 310.697540,158.399017 309.063965,156.951019 
	C301.369598,154.246597 295.962067,158.347778 295.960022,166.951630 
	C295.948273,216.703644 295.963898,266.455658 295.907990,316.207611 
	C295.905884,318.081390 295.262756,319.954468 294.538696,321.946350 
	C294.113342,286.614471 294.059692,251.164154 294.025238,215.713791 
	C294.009247,199.235657 293.972961,182.757172 294.062256,166.279480 
	C294.100006,159.311630 297.908844,154.717377 303.944702,153.880615 
	C309.989960,153.042557 314.517517,156.424301 316.400146,163.865158 
	C316.152710,164.964340 316.057800,165.496155 315.962891,166.027969 
z"/>
<path fill="#CC484F" opacity="1.000000" stroke="none" 
	d="
M107.628113,490.333618 
	C107.209351,489.419037 106.773346,488.404480 107.073959,487.707642 
	C109.637024,481.766479 112.224838,475.829407 115.079109,470.025787 
	C115.677078,468.809906 117.338974,467.573669 118.632896,467.427185 
	C119.555679,467.322754 121.108650,468.824066 121.648903,469.957428 
	C124.695221,476.348206 127.520180,482.844482 130.420593,489.304810 
	C130.042099,489.765808 129.663605,490.226807 129.285110,490.687805 
	C127.956001,489.895508 126.184006,489.412170 125.377106,488.255585 
	C122.425507,484.024628 114.372055,484.008270 111.310646,488.277679 
	C110.598480,489.270813 109.092873,489.695007 107.628113,490.333618 
M117.627296,481.819519 
	C119.019600,481.678680 120.411896,481.537842 122.434074,481.333282 
	C121.020126,478.068390 119.855621,475.379456 118.318680,471.830536 
	C116.976601,474.913788 115.866791,476.953827 115.269196,479.134247 
	C115.079811,479.825287 116.257034,480.890839 117.627296,481.819519 
z"/>
<path fill="#CC484F" opacity="1.000000" stroke="none" 
	d="
M211.828125,490.363098 
	C210.924194,489.450745 209.673264,488.207397 209.929443,487.605164 
	C212.534988,481.480072 215.307220,475.421356 218.203110,469.426300 
	C219.573914,466.588440 222.696930,466.170105 223.949860,468.737274 
	C227.279404,475.559418 230.245178,482.559082 232.537384,490.524292 
	C231.223160,490.061829 229.442963,489.991119 228.670975,489.072784 
	C223.962418,483.471924 217.597260,483.638885 213.472504,489.644501 
	C213.227890,490.000641 212.619675,490.107056 211.828125,490.363098 
M218.578568,481.610107 
	C220.627197,481.610107 222.675842,481.610107 225.566910,481.610107 
	C223.963135,478.171234 222.775330,475.624237 221.587509,473.077271 
	C221.171707,473.090240 220.755905,473.103180 220.340103,473.116150 
	C219.542740,475.825195 218.745377,478.534271 218.578568,481.610107 
z"/>
<path fill="#CD4C54" opacity="1.000000" stroke="none" 
	d="
M445.484467,490.551819 
	C437.789154,488.340698 434.050751,483.011536 435.347565,476.626434 
	C436.688202,470.025513 442.364990,466.165100 449.529510,467.123169 
	C450.976227,467.316620 452.586304,467.710175 453.696106,468.563904 
	C454.628082,469.280823 454.941254,470.802185 455.528412,471.967407 
	C454.265472,472.093414 452.756927,472.728027 451.782013,472.257355 
	C447.530914,470.204926 443.804810,470.826782 441.188904,474.572510 
	C438.503632,478.417633 439.615540,482.097534 443.014771,485.208252 
	C445.838409,487.792328 448.654724,486.996155 451.669128,485.621338 
	C452.601196,485.196228 453.852203,485.470459 454.957214,485.424561 
	C454.613403,486.560913 454.543365,488.459320 453.877319,488.698608 
	C451.315918,489.618744 448.563660,490.007507 445.484467,490.551819 
z"/>
<path fill="#F9EEEC" opacity="1.000000" stroke="none" 
	d="
M338.534607,228.286209 
	C338.873718,245.941696 338.970886,263.862366 339.006927,281.783142 
	C339.046661,301.536591 339.030304,321.290131 339.043640,341.510712 
	C338.368073,340.705597 337.096375,339.435242 337.092499,338.160980 
	C336.986572,303.204346 336.993469,268.247284 337.064697,233.290451 
	C337.067902,231.709976 337.847626,230.131073 338.534607,228.286209 
z"/>
<path fill="#CD4C54" opacity="1.000000" stroke="none" 
	d="
M495.990295,477.048248 
	C495.990295,477.048248 496.297455,477.230164 496.707275,477.457642 
	C498.351746,478.245819 499.586395,478.806458 500.821045,479.367126 
	C501.233856,480.071930 501.646637,480.776764 502.143555,482.153625 
	C502.397705,487.862427 499.397095,489.935394 494.920197,490.223572 
	C492.325623,490.390594 489.693573,489.976227 487.078400,489.823547 
	C486.599609,489.529510 486.120789,489.235504 485.305389,488.491455 
	C485.033173,487.056488 485.097565,486.071564 485.161957,485.086609 
	C485.567963,485.035370 485.973999,484.984100 486.946899,485.198853 
	C488.284027,485.768738 489.031189,486.233002 489.828583,486.347565 
	C492.678406,486.756805 496.078857,488.176666 497.429871,484.415710 
	C497.639648,483.831818 493.698303,481.844055 491.770020,480.382263 
	C489.432526,478.610382 486.132385,477.142273 485.157623,474.761200 
	C483.625183,471.018036 487.171356,468.967743 490.066437,467.210510 
	C490.506104,467.178223 490.945801,467.145935 492.107361,467.077454 
	C494.592773,467.252716 496.456024,467.186798 498.084900,467.772644 
	C499.177887,468.165680 499.938660,469.482391 500.848114,470.385803 
	C499.663086,470.811188 498.478088,471.236572 497.293091,471.661987 
	C497.293091,471.662018 497.254242,471.671509 497.118042,471.478088 
	C496.660400,471.264679 496.338928,471.244720 496.017456,471.224731 
	C495.573761,471.133667 495.130066,471.042603 493.972839,470.922913 
	C491.890625,471.780731 490.521942,472.667175 489.153229,473.553650 
	C490.299561,474.570953 491.326843,475.800232 492.632629,476.533600 
	C493.556671,477.052643 494.857605,476.900696 495.990295,477.048248 
z"/>
<path fill="#CA4F56" opacity="1.000000" stroke="none" 
	d="
M226.464966,293.538025 
	C225.973724,292.231506 225.084518,290.460510 225.078751,288.686615 
	C224.972595,256.093048 224.972198,223.499146 224.983307,190.435028 
	C225.487015,193.026703 226.353821,196.087143 226.365311,199.150803 
	C226.482651,230.457642 226.461044,261.765015 226.464966,293.538025 
z"/>
<path fill="#CC4D54" opacity="1.000000" stroke="none" 
	d="
M367.477142,471.297150 
	C366.025208,472.411469 364.330597,473.410187 364.129669,474.650848 
	C363.684723,477.398071 364.394257,480.344574 363.870758,483.063049 
	C363.392120,485.548370 366.259949,490.193848 361.585236,490.166382 
	C357.595398,490.142914 359.828064,485.724854 359.494080,483.283051 
	C359.137756,480.677979 359.300842,477.982086 359.431488,475.335449 
	C359.574799,472.432281 358.577271,471.079132 355.448822,471.191071 
	C354.353302,471.230286 353.213440,470.030518 352.093811,469.396576 
	C353.297180,468.663757 354.464661,467.380280 355.710541,467.299011 
	C359.838959,467.029633 364.002655,467.060150 368.136993,467.277100 
	C369.288544,467.337524 370.385315,468.440887 371.507233,469.065796 
	C370.308868,469.807648 369.110535,470.549500 367.477142,471.297150 
z"/>
<path fill="#CC4D54" opacity="1.000000" stroke="none" 
	d="
M312.853271,473.317627 
	C313.555542,474.414368 314.257812,475.511139 314.607452,476.057190 
	C319.616089,474.239655 319.315033,467.650238 325.971436,468.000244 
	C324.124878,470.875519 322.259430,472.953918 321.345001,475.389404 
	C319.807892,479.483215 318.974121,483.836212 317.615051,488.005371 
	C317.298340,488.976898 316.164581,489.855682 315.189789,490.344269 
	C314.851440,490.513885 313.203064,489.292297 313.259338,488.845428 
	C314.265045,480.856689 308.552826,475.665863 305.366394,469.434357 
	C305.152222,469.015533 305.185944,468.469910 305.475006,467.619690 
	C310.453857,466.649597 310.441193,471.385193 312.853271,473.317627 
z"/>
<path fill="#D25257" opacity="1.000000" stroke="none" 
	d="
M262.145111,484.803406 
	C262.146057,480.671814 261.888855,476.987305 262.244781,473.363007 
	C262.451111,471.262024 263.612366,467.514954 264.397644,467.500824 
	C268.617676,467.425018 266.599701,471.058685 266.761475,473.112518 
	C267.085052,477.221497 266.857483,481.373840 266.857483,486.373169 
	C269.949585,486.373169 272.717743,486.175079 275.432739,486.468506 
	C276.552917,486.589569 277.559021,487.766113 278.617004,488.462585 
	C277.656372,489.132080 276.722168,490.329926 275.730591,490.379486 
	C271.450378,490.593445 267.153351,490.471069 262.397156,490.471069 
	C262.299469,488.464203 262.221832,486.869965 262.145111,484.803406 
z"/>
<path fill="#CA4F56" opacity="1.000000" stroke="none" 
	d="
M294.733490,137.968597 
	C293.399811,130.832825 295.290771,126.377319 300.463287,123.775406 
	C305.099121,121.443443 310.445801,122.587997 313.938934,126.660164 
	C317.341248,130.626465 317.700989,136.094345 314.848938,140.491058 
	C309.851593,148.194839 299.417786,147.073608 294.733490,137.968597 
M298.378815,139.928802 
	C300.769806,142.525284 302.907776,144.868683 307.263824,143.284485 
	C312.111084,141.521606 314.964813,138.906403 314.947784,133.816315 
	C314.931885,129.060593 311.743042,126.291908 307.821075,124.511757 
	C303.282440,122.451736 299.895325,125.455093 297.546082,128.444611 
	C295.000153,131.684418 294.757507,135.811325 298.378815,139.928802 
z"/>
<path fill="#F9EEEC" opacity="1.000000" stroke="none" 
	d="
M342.289001,342.366760 
	C353.584595,337.168274 365.249390,332.485077 376.629456,327.190063 
	C381.532593,324.908691 385.846130,321.360199 390.757751,318.333130 
	C390.745789,319.620850 390.403625,320.962769 390.030731,322.652344 
	C390.000000,323.000000 390.001892,322.997925 390.001892,322.997925 
	C388.551636,323.082947 387.101410,323.168030 385.420074,323.266632 
	C385.142303,325.104004 384.903015,326.687042 384.872406,326.889526 
	C378.970581,329.549774 373.976990,331.971161 368.847961,334.059753 
	C364.578430,335.798340 360.131073,337.095062 355.797516,338.683075 
	C352.318451,339.957947 348.916229,341.444946 345.424469,342.681213 
	C344.575867,342.981689 343.509155,342.666229 342.289001,342.366760 
z"/>
<path fill="#FAE8E5" opacity="1.000000" stroke="none" 
	d="
M489.844513,466.903259 
	C487.171356,468.967743 483.625183,471.018036 485.157623,474.761200 
	C486.132385,477.142273 489.432526,478.610382 491.770020,480.382263 
	C493.698303,481.844055 497.639648,483.831818 497.429871,484.415710 
	C496.078857,488.176666 492.678406,486.756805 489.828583,486.347565 
	C489.031189,486.233002 488.284027,485.768738 487.253693,485.188416 
	C485.501526,481.869720 484.009521,478.827484 482.252045,475.243958 
	C485.142853,473.890625 480.020233,464.044617 489.844513,466.903259 
z"/>
<path fill="#D44048" opacity="1.000000" stroke="none" 
	d="
M164.959946,470.052063 
	C166.892670,472.147980 168.825394,474.243896 170.870331,477.034973 
	C170.305298,478.836548 169.628052,479.942993 168.950806,481.049408 
	C168.950806,481.049408 168.782700,481.125977 168.620087,480.820557 
	C167.216782,479.028717 165.976089,477.542328 163.975845,475.145935 
	C163.975845,477.933594 163.975845,479.457733 163.975845,480.981903 
	C163.823792,483.889526 163.671738,486.797119 162.960724,489.877563 
	C161.947449,489.967316 161.493164,489.884247 161.027969,489.348083 
	C161.008331,483.784515 160.798187,478.660858 161.131363,473.572815 
	C161.215454,472.288605 163.035889,471.118103 164.282043,469.944702 
	C164.505646,469.994049 164.959946,470.052063 164.959946,470.052063 
z"/>
<path fill="#D6373E" opacity="1.000000" stroke="none" 
	d="
M405.075409,478.984253 
	C405.071564,482.123596 405.308655,484.807953 404.957855,487.413147 
	C404.792999,488.637207 403.496521,489.708893 402.712860,490.849640 
	C402.119995,490.617432 401.527100,490.385223 400.934235,490.153015 
	C400.934235,483.264313 400.872803,476.374237 401.024109,469.488861 
	C401.040222,468.757477 402.302185,468.053436 402.986176,467.336731 
	C403.669098,468.073578 404.876221,468.766876 404.941681,469.555023 
	C405.187866,472.518890 405.061920,475.513611 405.075409,478.984253 
z"/>
<path fill="#D6393D" opacity="1.000000" stroke="none" 
	d="
M179.624435,471.085754 
	C179.667480,475.767181 179.710541,480.448608 179.365326,485.657776 
	C177.557632,486.360352 176.138199,486.535217 174.718750,486.710114 
	C174.716492,485.239288 174.590622,483.755951 174.737473,482.300171 
	C175.052322,479.179169 175.507996,476.072357 175.905991,472.959747 
	C175.905991,472.959747 175.927094,472.525208 176.048859,472.039978 
	C177.321899,471.398376 178.473175,471.242065 179.624435,471.085754 
z"/>
<path fill="#CD5B61" opacity="1.000000" stroke="none" 
	d="
M175.644470,473.190613 
	C175.507996,476.072357 175.052322,479.179169 174.737473,482.300171 
	C174.590622,483.755951 174.716492,485.239288 174.718750,486.710114 
	C176.138199,486.535217 177.557632,486.360352 179.293976,486.121735 
	C179.610855,486.058014 179.841461,485.941498 179.888748,486.324768 
	C179.985825,487.476471 180.035614,488.244934 180.085419,489.013397 
	C175.610977,494.268890 174.786835,487.803009 172.136230,485.973419 
	C170.967667,484.227142 169.987640,483.104034 169.007614,481.980896 
	C169.007614,481.980896 168.934082,481.517731 168.942444,481.283569 
	C169.628052,479.942993 170.305298,478.836548 170.997513,477.344788 
	C171.712509,477.323608 172.412537,477.687805 173.467178,478.236511 
	C174.135193,476.557556 174.759064,474.989532 175.644470,473.190613 
z"/>
<path fill="#F9EEEC" opacity="1.000000" stroke="none" 
	d="
M353.010437,207.187973 
	C361.550262,202.309113 363.263550,198.888092 360.937195,190.466614 
	C364.447479,189.531219 363.814362,192.297470 364.219208,194.257233 
	C365.638519,201.127792 360.808289,207.890732 353.930878,208.564194 
	C353.674683,208.589294 353.347198,207.887100 353.010437,207.187973 
z"/>
<path fill="#F9EEEC" opacity="1.000000" stroke="none" 
	d="
M347.664551,214.586456 
	C343.377838,216.983887 340.025696,220.142258 338.962463,225.681671 
	C338.222717,225.342377 337.231415,224.742126 337.100891,223.992081 
	C336.063232,218.028671 340.780182,213.651688 347.664551,214.586456 
z"/>
<path fill="#FAE8E5" opacity="1.000000" stroke="none" 
	d="
M497.246643,472.054199 
	C498.478088,471.236572 499.663086,470.811188 500.848114,470.385803 
	C499.938660,469.482391 499.177887,468.165680 498.084900,467.772644 
	C496.456024,467.186798 494.592773,467.252716 492.415649,466.951843 
	C495.889709,462.796875 499.909851,463.018921 502.572601,467.809784 
	C503.285675,469.092712 502.592987,471.156952 502.545624,472.862518 
	C500.763824,472.723816 498.981995,472.585114 497.246643,472.054199 
z"/>
<path fill="#FAE8E5" opacity="1.000000" stroke="none" 
	d="
M487.126038,490.233826 
	C489.693573,489.976227 492.325623,490.390594 494.920197,490.223572 
	C499.397095,489.935394 502.397705,487.862427 502.288361,482.424255 
	C505.050781,486.315491 504.810608,489.450043 500.126434,490.880157 
	C496.198975,492.079285 491.519958,490.816742 487.126038,490.233826 
z"/>
<path fill="#F5C5C7" opacity="1.000000" stroke="none" 
	d="
M165.104645,469.713013 
	C164.959946,470.052063 164.505646,469.994049 164.140045,469.570801 
	C161.428024,466.862122 159.855179,467.234283 159.820953,470.609894 
	C159.755508,477.063629 159.941360,483.519897 159.931458,490.058044 
	C159.839996,490.140961 159.652069,490.301117 159.652069,490.301117 
	C159.155411,489.362061 158.236542,488.425507 158.230957,487.483521 
	C158.195862,481.563202 158.434967,475.641693 158.434158,469.720581 
	C158.433777,466.861603 159.827408,465.938599 162.448349,466.045471 
	C164.680893,466.136505 166.707153,466.246094 165.104645,469.713013 
z"/>
<path fill="#F9EEEC" opacity="1.000000" stroke="none" 
	d="
M344.828857,185.062241 
	C343.441223,187.287872 341.629272,189.461197 339.606384,191.876022 
	C338.678528,189.814865 337.961639,187.512222 337.244720,185.209564 
	C339.631317,185.143021 342.017944,185.076477 344.828857,185.062241 
z"/>
<path fill="#F9EEEC" opacity="1.000000" stroke="none" 
	d="
M360.956543,189.692734 
	C357.798096,188.230408 354.671234,186.366333 351.254456,184.309570 
	C356.276703,180.395416 360.072113,182.354568 360.956543,189.692734 
z"/>
<path fill="#F9EEEC" opacity="1.000000" stroke="none" 
	d="
M338.520844,196.070114 
	C339.732239,201.154068 342.311707,204.899719 347.769592,206.709366 
	C343.639618,208.206223 340.811859,205.915802 339.065643,202.420807 
	C338.170258,200.628769 338.431183,198.259033 338.520844,196.070114 
z"/>
<path fill="#FAE8E5" opacity="1.000000" stroke="none" 
	d="
M495.941437,476.691559 
	C494.857605,476.900696 493.556671,477.052643 492.632629,476.533600 
	C491.326843,475.800232 490.299561,474.570953 489.153229,473.553650 
	C490.521942,472.667175 491.890625,471.780731 493.637604,470.991425 
	C494.641449,472.837341 495.266998,474.586090 495.941437,476.691559 
z"/>
<path fill="#F9EEEC" opacity="1.000000" stroke="none" 
	d="
M395.242828,315.501648 
	C396.457489,313.849884 397.859680,312.509583 399.844238,311.083740 
	C400.618652,311.001160 400.810730,311.004150 401.002808,311.007111 
	C400.944031,317.742676 400.554321,318.078766 395.242828,315.501648 
z"/>
<path fill="#F5C5C7" opacity="1.000000" stroke="none" 
	d="
M413.346741,297.983765 
	C415.391968,294.692322 417.810211,291.402435 420.517761,287.939209 
	C420.391571,292.522614 417.434235,295.516510 413.346741,297.983765 
z"/>
<path fill="#CA4F56" opacity="1.000000" stroke="none" 
	d="
M237.197205,302.332489 
	C234.235977,300.393646 231.140594,298.159332 228.010254,295.598083 
	C231.004532,297.526459 234.033783,299.781738 237.197205,302.332489 
z"/>
<path fill="#CA4F56" opacity="1.000000" stroke="none" 
	d="
M286.647644,321.978027 
	C283.377106,321.614716 279.821564,321.018097 276.105530,320.154755 
	C279.417572,320.506927 282.890106,321.125824 286.647644,321.978027 
z"/>
<path fill="#F9EEEC" opacity="1.000000" stroke="none" 
	d="
M312.900574,472.900208 
	C310.441193,471.385193 310.453857,466.649597 305.480957,467.263733 
	C306.772827,464.736481 310.192078,464.939270 311.846008,467.898621 
	C312.584167,469.219391 312.602722,470.942322 312.900574,472.900208 
z"/>
<path fill="#CD5B61" opacity="1.000000" stroke="none" 
	d="
M179.750000,470.742188 
	C178.473175,471.242065 177.321899,471.398376 176.049805,471.822449 
	C175.678619,471.582214 175.428238,471.074249 175.215790,469.968445 
	C175.245178,468.935730 175.236664,468.500916 175.228149,468.066101 
	C175.656250,467.767639 176.084335,467.469177 177.078293,467.159607 
	C178.092712,467.114960 178.541290,467.081421 178.989853,467.047882 
	C179.285080,468.164795 179.580322,469.281738 179.750000,470.742188 
z"/>
<path fill="#FAE8E5" opacity="1.000000" stroke="none" 
	d="
M484.784271,485.062317 
	C485.097565,486.071564 485.033173,487.056488 485.030884,488.410950 
	C483.931396,488.555450 482.769867,488.330444 481.608276,488.105408 
	C482.541046,487.082947 483.473816,486.060486 484.784271,485.062317 
z"/>
<path fill="#FAD8D5" opacity="1.000000" stroke="none" 
	d="
M164.363098,480.976624 
	C163.975845,479.457733 163.975845,477.933594 163.975845,475.145935 
	C165.976089,477.542328 167.216782,479.028717 168.529816,480.840088 
	C167.318237,481.100464 166.034286,481.035889 164.363098,480.976624 
z"/>
<path fill="#CA4F56" opacity="1.000000" stroke="none" 
	d="
M293.665039,322.267090 
	C293.566193,323.355316 293.035675,324.490173 292.303467,326.056396 
	C290.985413,324.825928 290.052094,323.954590 289.027771,322.800598 
	C290.368988,322.449829 291.801147,322.381775 293.665039,322.267090 
z"/>
<path fill="#F9EEEC" opacity="1.000000" stroke="none" 
	d="
M389.998962,323.000946 
	C391.420105,323.695831 392.842255,324.389801 394.264435,325.083771 
	C394.010284,325.503754 393.756134,325.923767 393.501984,326.343750 
	C392.363220,325.461334 391.224487,324.578888 390.043823,323.347198 
	C390.001892,322.997925 390.000000,323.000000 389.998962,323.000946 
z"/>
<path fill="#FAD8D5" opacity="1.000000" stroke="none" 
	d="
M168.997986,482.368958 
	C169.987640,483.104034 170.967667,484.227142 171.973145,485.677185 
	C170.995193,484.921753 169.991776,483.839417 168.997986,482.368958 
z"/>
<path fill="#FAE8E5" opacity="1.000000" stroke="none" 
	d="
M500.872070,479.003723 
	C499.586395,478.806458 498.351746,478.245819 496.884186,477.433990 
	C498.009796,477.860474 500.688080,474.669800 500.872070,479.003723 
z"/>
<path fill="#F5C5C7" opacity="1.000000" stroke="none" 
	d="
M161.038864,489.801178 
	C161.493164,489.884247 161.947449,489.967316 162.736633,490.140198 
	C162.036179,490.435425 161.000870,490.640869 159.808807,490.573700 
	C159.652069,490.301117 159.839996,490.140961 160.192032,490.053192 
	C160.709015,489.910675 160.873947,489.855927 161.038864,489.801178 
z"/>
<path fill="#F9EEEC" opacity="1.000000" stroke="none" 
	d="
M348.852112,183.833008 
	C348.234253,184.396973 347.434204,184.691406 346.311127,184.937164 
	C346.882050,184.446808 347.776001,184.005142 348.852112,183.833008 
z"/>
<path fill="#FAE8E5" opacity="1.000000" stroke="none" 
	d="
M180.409500,488.957031 
	C180.035614,488.244934 179.985825,487.476471 180.017822,486.330139 
	C180.310944,486.935028 180.522263,487.917847 180.409500,488.957031 
z"/>
<path fill="#FAE8E5" opacity="1.000000" stroke="none" 
	d="
M178.992661,466.700531 
	C178.541290,467.081421 178.092712,467.114960 177.318665,467.054199 
	C177.308456,466.139557 177.623734,465.319214 177.939026,464.498901 
	C178.291168,465.117004 178.643326,465.735077 178.992661,466.700531 
z"/>
<path fill="#E8757C" opacity="1.000000" stroke="none" 
	d="
M316.304321,363.736908 
	C316.094299,362.506897 316.156708,361.012146 316.445618,359.222626 
	C316.640320,360.442627 316.608582,361.957397 316.304321,363.736908 
z"/>
<path fill="#CA4F56" opacity="1.000000" stroke="none" 
	d="
M273.723450,319.116730 
	C273.267487,319.132385 272.621063,318.922668 271.956848,318.441833 
	C272.470337,318.410919 273.001709,318.651123 273.723450,319.116730 
z"/>
<path fill="#FAE8E5" opacity="1.000000" stroke="none" 
	d="
M174.909241,468.072571 
	C175.236664,468.500916 175.245178,468.935730 175.149536,469.681061 
	C174.514801,469.740143 173.984253,469.488739 173.453690,469.237305 
	C173.832581,468.851227 174.211456,468.465149 174.909241,468.072571 
z"/>
<path fill="#E8757C" opacity="1.000000" stroke="none" 
	d="
M316.024872,166.242416 
	C316.057800,165.496155 316.152710,164.964340 316.404938,164.213989 
	C316.688873,164.779770 316.815491,165.564072 316.799835,166.729156 
	C316.359894,166.986099 316.169647,166.768417 316.024872,166.242416 
z"/>
<path fill="#F5C5C7" opacity="1.000000" stroke="none" 
	d="
M392.589081,317.076019 
	C392.327484,316.813263 392.420898,316.600647 392.895874,316.478668 
	C393.079926,316.733398 392.968842,316.919037 392.589081,317.076019 
z"/>
<path fill="#FAE8E5" opacity="1.000000" stroke="none" 
	d="
M496.165405,471.419128 
	C496.338928,471.244720 496.660400,471.264679 497.115479,471.497894 
	C497.249054,471.711151 496.766479,471.802551 496.766479,471.802551 
	C496.766479,471.802551 496.313385,471.613464 496.165405,471.419128 
z"/>
<path fill="#F5C5C7" opacity="1.000000" stroke="none" 
	d="
M401.017120,310.760193 
	C400.810730,311.004150 400.618652,311.001160 400.140900,310.951752 
	C400.066589,310.638000 400.277954,310.370667 400.750427,310.061157 
	C401.011566,310.018951 401.031433,310.513245 401.017120,310.760193 
z"/>
<path fill="#F5C5C7" opacity="1.000000" stroke="none" 
	d="
M402.409668,309.012573 
	C402.146240,308.706787 402.283386,308.433197 402.839355,308.219666 
	C403.061951,308.522308 402.912628,308.777344 402.409668,309.012573 
z"/>
<path fill="#F9EEEC" opacity="1.000000" stroke="none" 
	d="
M337.469757,214.452423 
	C337.523651,214.420471 337.415863,214.484360 337.469757,214.452423 
z"/>
<path fill="#DF2D35" opacity="1.000000" stroke="none" 
	d="
M307.437927,358.000153 
	C307.000000,296.738098 307.008911,235.476212 306.973724,174.214325 
	C306.971985,171.151855 308.302551,167.363556 303.510193,166.208145 
	C303.238556,166.142670 303.349762,164.489151 303.274261,163.458054 
	C311.784698,165.777527 312.999969,167.246399 312.999969,174.895859 
	C313.000031,233.660660 313.000000,292.425476 313.000000,351.190277 
	C313.000000,353.162140 313.000000,355.134003 313.000000,357.622589 
	C311.045166,357.766693 309.460510,357.883514 307.437927,358.000153 
z"/>
<path fill="#DF2D35" opacity="1.000000" stroke="none" 
	d="
M299.847778,367.258911 
	C297.475464,364.845612 294.774170,362.791565 297.698303,359.260071 
	C300.005951,362.519043 302.092773,365.466187 304.690155,369.134369 
	C302.871460,368.479034 301.501678,367.985504 299.847778,367.258911 
z"/>
<path fill="#DF2D35" opacity="1.000000" stroke="none" 
	d="
M312.726501,364.806366 
	C312.986206,365.723572 312.968750,366.442413 312.916565,367.517334 
	C312.388275,367.932678 311.889252,368.070190 311.402222,368.036255 
	C310.079285,367.944092 308.761383,367.779327 307.441498,367.643372 
	C307.761078,366.475922 307.780457,364.594238 308.469086,364.304810 
	C309.560516,363.846008 311.099670,364.452332 312.726501,364.806366 
z"/>
<path fill="#DF2D35" opacity="1.000000" stroke="none" 
	d="
M308.783691,157.181488 
	C310.697540,158.399017 312.331116,159.847000 314.008728,161.632721 
	C309.430328,163.416565 308.130371,162.348724 308.783691,157.181488 
z"/>
<path fill="#DF2D35" opacity="1.000000" stroke="none" 
	d="
M306.613403,358.000946 
	C306.125336,358.947998 305.250641,359.895966 304.375977,360.843964 
	C303.983948,360.408203 303.591888,359.972412 303.199860,359.536621 
	C304.208832,359.025055 305.217804,358.513458 306.613403,358.000946 
z"/>
<path fill="#F6F3F3" opacity="1.000000" stroke="none" 
	d="
M155.763062,413.541748 
	C155.843842,420.136383 153.788712,422.562195 147.943298,423.012604 
	C145.633759,423.190521 143.301346,423.093658 140.979660,423.077484 
	C140.355576,423.073151 139.732605,422.906036 138.858109,422.776489 
	C138.858109,417.881042 138.858109,413.172546 138.858109,407.842743 
	C144.990295,408.818817 151.932159,405.343964 155.763062,413.541748 
z"/>
<path fill="#F8F6F6" opacity="1.000000" stroke="none" 
	d="
M413.588989,413.790863 
	C419.147369,407.312134 425.314392,405.888275 431.403015,409.430969 
	C437.133820,412.765503 439.630798,419.852325 437.356598,426.328064 
	C435.123535,432.686615 429.115234,436.268433 422.433746,435.224182 
	C413.239532,433.787262 409.087311,424.114410 413.588989,413.790863 
z"/>
<path fill="#F0EBEA" opacity="1.000000" stroke="none" 
	d="
M203.435699,419.766022 
	C204.312103,421.939117 205.015656,423.742920 205.900101,426.010498 
	C201.262497,426.010498 197.239502,426.010498 192.549210,426.010498 
	C194.684280,420.751190 196.692963,415.803192 199.186096,409.661865 
	C200.843994,413.620758 202.053421,416.508759 203.435699,419.766022 
z"/>
<path fill="#F0EBEA" opacity="1.000000" stroke="none" 
	d="
M295.038879,414.929810 
	C296.576172,418.754700 297.984802,422.211761 299.563141,426.085297 
	C294.972534,426.085297 291.064880,426.085297 286.073059,426.085297 
	C288.288635,420.704254 290.332581,415.739929 292.706024,409.975433 
	C293.684418,412.011292 294.297333,413.286621 295.038879,414.929810 
z"/>
<path fill="#F6F3F3" opacity="1.000000" stroke="none" 
	d="
M361.878052,415.987488 
	C361.878754,413.210236 361.878754,410.917633 361.878754,407.968872 
	C367.605225,408.485382 373.664062,405.865265 377.724792,411.225098 
	C379.080536,413.014557 379.359039,417.083282 378.240143,419.016113 
	C374.565826,425.363251 368.007477,422.288086 361.877350,423.275085 
	C361.877350,420.649414 361.877350,418.560760 361.878052,415.987488 
z"/>
<path fill="#F6F3F3" opacity="1.000000" stroke="none" 
	d="
M93.805359,423.059570 
	C91.401939,423.066315 89.457512,423.066315 87.197296,423.066315 
	C87.197296,417.926025 87.197296,413.231171 87.197296,407.958130 
	C90.092003,407.958130 92.853340,407.869415 95.607040,407.976715 
	C101.264236,408.197052 104.148933,410.750732 104.215614,415.445007 
	C104.280243,419.993866 101.762779,422.390717 96.248428,423.001038 
	C95.593185,423.073547 94.926003,423.038177 93.805359,423.059570 
z"/>
<path fill="#FAD8D5" opacity="1.000000" stroke="none" 
	d="
M117.218086,481.802246 
	C116.257034,480.890839 115.079811,479.825287 115.269196,479.134247 
	C115.866791,476.953827 116.976601,474.913788 118.318680,471.830536 
	C119.855621,475.379456 121.020126,478.068390 122.434074,481.333282 
	C120.411896,481.537842 119.019600,481.678680 117.218086,481.802246 
z"/>
<path fill="#FAD8D5" opacity="1.000000" stroke="none" 
	d="
M218.263290,481.426697 
	C218.745377,478.534271 219.542740,475.825195 220.340103,473.116150 
	C220.755905,473.103180 221.171707,473.090240 221.587509,473.077271 
	C222.775330,475.624237 223.963135,478.171234 225.566910,481.610107 
	C222.675842,481.610107 220.627197,481.610107 218.263290,481.426697 
z"/>
<path fill="#D7373C" opacity="1.000000" stroke="none" 
	d="
M298.106689,139.654022 
	C294.757507,135.811325 295.000153,131.684418 297.546082,128.444611 
	C299.895325,125.455093 303.282440,122.451736 307.821075,124.511757 
	C311.743042,126.291908 314.931885,129.060593 314.947784,133.816315 
	C314.964813,138.906403 312.111084,141.521606 307.263824,143.284485 
	C302.907776,144.868683 300.769806,142.525284 298.106689,139.654022 
z"/>
<path fill="#CC484F" opacity="1.000000" stroke="none" 
	d="
M161.027969,489.348083 
	C160.873947,489.855927 160.709015,489.910675 160.283508,489.970276 
	C159.941360,483.519897 159.755508,477.063629 159.820953,470.609894 
	C159.855179,467.234283 161.428024,466.862122 163.916428,469.521454 
	C163.035889,471.118103 161.215454,472.288605 161.131363,473.572815 
	C160.798187,478.660858 161.008331,483.784515 161.027969,489.348083 
z"/>
</svg>